<svg xmlns="http://www.w3.org/2000/svg" xmlns:xlink="http://www.w3.org/1999/xlink" version="1.1" id="Layer_1" x="0px" y="0px" enable-background="new 0 0 704 672" xml:space="preserve" viewBox="144.12 142.6 369.32 369.52">
<path fill="#A91B18" opacity="1.000000" stroke="none" d=" M353.758331,143.911514   C373.576569,146.804062 392.120300,152.206345 409.798737,160.830673   C441.179047,176.139404 465.825500,198.810181 484.774994,227.930420   C496.617798,246.129639 504.717621,265.910187 509.274811,287.090485   C511.970703,299.620117 513.237305,312.399658 513.266785,325.200775   C513.405212,385.346710 513.268921,445.493317 513.441284,505.639099   C513.456116,510.798492 511.783051,512.130249 506.871155,512.119934   C448.891113,511.998291 390.910583,512.129944 332.930420,512.040649   C294.740295,511.981842 259.137054,502.623993 227.225586,481.161133   C199.448608,462.478973 177.909378,438.278931 163.043488,408.075867   C153.292557,388.264893 146.960144,367.457245 145.007065,345.652740   C140.902161,299.825012 150.934082,257.395020 178.268326,219.738754   C198.611282,191.713791 224.878784,170.910095 256.576172,157.201691   C277.185791,148.288513 298.814575,143.061707 321.410767,142.738007   C332.058167,142.585480 342.730591,142.217453 353.758331,143.911514  M273.743652,231.283127   C228.414383,257.615143 207.939896,309.104980 222.891754,359.166962   C236.580109,404.998535 280.107758,437.549713 328.003845,437.657593   C362.497345,437.735321 396.991119,437.686035 431.484772,437.686279   C438.890747,437.686310 439.010773,437.570374 439.009583,430.188812   C439.004089,396.528442 439.030304,362.867920 438.939789,329.207764   C438.921478,322.398529 438.782196,315.597229 437.702637,308.808136   C433.931427,285.091461 423.301697,264.724579 406.213074,248.265671   C382.679291,225.599106 354.419952,214.794296 321.305878,217.056503   C304.487915,218.205444 289.004730,222.854980 273.743652,231.283127  z"/>
</svg>